<mxfile>
    <diagram id="MkAAogM-d4SNL2zrGhBg" name="Page-1">
        <mxGraphModel dx="1645" dy="1323" grid="1" gridSize="10" guides="1" tooltips="1" connect="1" arrows="1" fold="1" page="1" pageScale="1" pageWidth="827" pageHeight="1169" math="0" shadow="0">
            <root>
                <mxCell id="0"/>
                <mxCell id="1" parent="0"/>
                <mxCell id="2" value="" style="pointerEvents=1;verticalLabelPosition=bottom;shadow=0;dashed=0;align=center;html=1;verticalAlign=top;shape=mxgraph.electrical.resistors.resistor_2;rotation=45;" parent="1" vertex="1">
                    <mxGeometry x="164" y="126" width="100" height="20" as="geometry"/>
                </mxCell>
                <mxCell id="7" style="rounded=0;orthogonalLoop=1;jettySize=auto;html=1;exitX=1;exitY=0.645;exitDx=0;exitDy=0;exitPerimeter=0;entryX=0.5;entryY=0;entryDx=0;entryDy=0;entryPerimeter=0;endArrow=none;endFill=0;" parent="1" source="3" target="5" edge="1">
                    <mxGeometry relative="1" as="geometry"/>
                </mxCell>
                <mxCell id="8" style="rounded=0;orthogonalLoop=1;jettySize=auto;html=1;exitX=0;exitY=0.645;exitDx=0;exitDy=0;exitPerimeter=0;entryX=1;entryY=0.5;entryDx=0;entryDy=0;entryPerimeter=0;endArrow=none;endFill=0;" parent="1" source="3" target="2" edge="1">
                    <mxGeometry relative="1" as="geometry"/>
                </mxCell>
                <mxCell id="3" value="" style="pointerEvents=1;verticalLabelPosition=bottom;shadow=0;dashed=0;align=center;html=1;verticalAlign=top;shape=mxgraph.electrical.inductors.inductor_5;rotation=45;" parent="1" vertex="1">
                    <mxGeometry x="244" y="206" width="100" height="14" as="geometry"/>
                </mxCell>
                <mxCell id="22" style="edgeStyle=none;rounded=0;orthogonalLoop=1;jettySize=auto;html=1;exitX=0.5;exitY=1;exitDx=0;exitDy=0;exitPerimeter=0;entryX=0.5;entryY=1;entryDx=0;entryDy=0;entryPerimeter=0;endArrow=none;endFill=0;" parent="1" source="5" target="13" edge="1">
                    <mxGeometry relative="1" as="geometry">
                        <Array as="points">
                            <mxPoint x="424" y="356"/>
                        </Array>
                    </mxGeometry>
                </mxCell>
                <mxCell id="5" value="" style="pointerEvents=1;verticalLabelPosition=bottom;shadow=0;dashed=0;align=center;html=1;verticalAlign=top;shape=mxgraph.electrical.signal_sources.source;aspect=fixed;points=[[0.5,0,0],[1,0.5,0],[0.5,1,0],[0,0.5,0]];elSignalType=dc3;rotation=-45;" parent="1" vertex="1">
                    <mxGeometry x="344" y="268" width="60" height="60" as="geometry"/>
                </mxCell>
                <mxCell id="9" value="" style="pointerEvents=1;verticalLabelPosition=bottom;shadow=0;dashed=0;align=center;html=1;verticalAlign=top;shape=mxgraph.electrical.resistors.resistor_2;rotation=-45;" parent="1" vertex="1">
                    <mxGeometry x="164" y="556" width="100" height="20" as="geometry"/>
                </mxCell>
                <mxCell id="10" style="rounded=0;orthogonalLoop=1;jettySize=auto;html=1;exitX=1;exitY=0.645;exitDx=0;exitDy=0;exitPerimeter=0;entryX=0.5;entryY=0;entryDx=0;entryDy=0;entryPerimeter=0;endArrow=none;endFill=0;" parent="1" source="12" target="13" edge="1">
                    <mxGeometry relative="1" as="geometry"/>
                </mxCell>
                <mxCell id="11" style="rounded=0;orthogonalLoop=1;jettySize=auto;html=1;exitX=0;exitY=0.645;exitDx=0;exitDy=0;exitPerimeter=0;entryX=1;entryY=0.5;entryDx=0;entryDy=0;entryPerimeter=0;endArrow=none;endFill=0;" parent="1" source="12" target="9" edge="1">
                    <mxGeometry relative="1" as="geometry"/>
                </mxCell>
                <mxCell id="12" value="" style="pointerEvents=1;verticalLabelPosition=bottom;shadow=0;dashed=0;align=center;html=1;verticalAlign=top;shape=mxgraph.electrical.inductors.inductor_5;rotation=-45;" parent="1" vertex="1">
                    <mxGeometry x="244" y="476" width="100" height="14" as="geometry"/>
                </mxCell>
                <mxCell id="13" value="" style="pointerEvents=1;verticalLabelPosition=bottom;shadow=0;dashed=0;align=center;html=1;verticalAlign=top;shape=mxgraph.electrical.signal_sources.source;aspect=fixed;points=[[0.5,0,0],[1,0.5,0],[0.5,1,0],[0,0.5,0]];elSignalType=dc3;rotation=-135;" parent="1" vertex="1">
                    <mxGeometry x="344" y="376" width="60" height="60" as="geometry"/>
                </mxCell>
                <mxCell id="14" value="" style="pointerEvents=1;verticalLabelPosition=bottom;shadow=0;dashed=0;align=center;html=1;verticalAlign=top;shape=mxgraph.electrical.resistors.resistor_2;rotation=0;" parent="1" vertex="1">
                    <mxGeometry x="659" y="346" width="100" height="20" as="geometry"/>
                </mxCell>
                <mxCell id="20" style="edgeStyle=none;rounded=0;orthogonalLoop=1;jettySize=auto;html=1;exitX=0;exitY=0.645;exitDx=0;exitDy=0;exitPerimeter=0;entryX=0.5;entryY=0;entryDx=0;entryDy=0;entryPerimeter=0;endArrow=none;endFill=0;" parent="1" source="17" target="18" edge="1">
                    <mxGeometry relative="1" as="geometry"/>
                </mxCell>
                <mxCell id="21" style="edgeStyle=none;rounded=0;orthogonalLoop=1;jettySize=auto;html=1;exitX=1;exitY=0.645;exitDx=0;exitDy=0;exitPerimeter=0;entryX=0;entryY=0.5;entryDx=0;entryDy=0;entryPerimeter=0;endArrow=none;endFill=0;" parent="1" source="17" edge="1">
                    <mxGeometry relative="1" as="geometry">
                        <mxPoint x="660" y="356" as="targetPoint"/>
                    </mxGeometry>
                </mxCell>
                <mxCell id="17" value="" style="pointerEvents=1;verticalLabelPosition=bottom;shadow=0;dashed=0;align=center;html=1;verticalAlign=top;shape=mxgraph.electrical.inductors.inductor_5;rotation=0;" parent="1" vertex="1">
                    <mxGeometry x="543" y="347" width="100" height="14" as="geometry"/>
                </mxCell>
                <mxCell id="23" style="edgeStyle=none;rounded=0;orthogonalLoop=1;jettySize=auto;html=1;exitX=0.5;exitY=1;exitDx=0;exitDy=0;exitPerimeter=0;endArrow=none;endFill=0;" parent="1" source="18" edge="1">
                    <mxGeometry relative="1" as="geometry">
                        <mxPoint x="424" y="356" as="targetPoint"/>
                    </mxGeometry>
                </mxCell>
                <mxCell id="18" value="" style="pointerEvents=1;verticalLabelPosition=bottom;shadow=0;dashed=0;align=center;html=1;verticalAlign=top;shape=mxgraph.electrical.signal_sources.source;aspect=fixed;points=[[0.5,0,0],[1,0.5,0],[0.5,1,0],[0,0.5,0]];elSignalType=dc3;rotation=90;" parent="1" vertex="1">
                    <mxGeometry x="458" y="326" width="60" height="60" as="geometry"/>
                </mxCell>
                <mxCell id="25" style="edgeStyle=none;rounded=0;orthogonalLoop=1;jettySize=auto;html=1;exitX=1;exitY=0.5;exitDx=0;exitDy=0;entryX=0;entryY=0.5;entryDx=0;entryDy=0;entryPerimeter=0;endArrow=none;endFill=0;" parent="1" source="24" target="2" edge="1">
                    <mxGeometry relative="1" as="geometry"/>
                </mxCell>
                <mxCell id="24" value="" style="verticalLabelPosition=bottom;shadow=0;dashed=0;align=center;html=1;verticalAlign=top;strokeWidth=1;shape=ellipse;" parent="1" vertex="1">
                    <mxGeometry x="64" y="86" width="30" height="30" as="geometry"/>
                </mxCell>
                <mxCell id="27" style="edgeStyle=none;rounded=0;orthogonalLoop=1;jettySize=auto;html=1;exitX=1;exitY=0.5;exitDx=0;exitDy=0;entryX=0;entryY=0.5;entryDx=0;entryDy=0;entryPerimeter=0;endArrow=none;endFill=0;" parent="1" source="26" target="9" edge="1">
                    <mxGeometry relative="1" as="geometry"/>
                </mxCell>
                <mxCell id="26" value="" style="verticalLabelPosition=bottom;shadow=0;dashed=0;align=center;html=1;verticalAlign=top;strokeWidth=1;shape=ellipse;" parent="1" vertex="1">
                    <mxGeometry x="64" y="586" width="30" height="30" as="geometry"/>
                </mxCell>
                <mxCell id="29" style="edgeStyle=none;rounded=0;orthogonalLoop=1;jettySize=auto;html=1;exitX=1;exitY=0.5;exitDx=0;exitDy=0;endArrow=oval;endFill=1;" parent="1" source="28" edge="1">
                    <mxGeometry relative="1" as="geometry">
                        <mxPoint x="424" y="356" as="targetPoint"/>
                        <Array as="points">
                            <mxPoint x="424" y="679"/>
                        </Array>
                    </mxGeometry>
                </mxCell>
                <mxCell id="28" value="" style="verticalLabelPosition=bottom;shadow=0;dashed=0;align=center;html=1;verticalAlign=top;strokeWidth=1;shape=ellipse;" parent="1" vertex="1">
                    <mxGeometry x="64" y="664" width="30" height="30" as="geometry"/>
                </mxCell>
                <mxCell id="31" style="edgeStyle=none;rounded=0;orthogonalLoop=1;jettySize=auto;html=1;exitX=1;exitY=0.5;exitDx=0;exitDy=0;endArrow=none;endFill=0;entryX=1;entryY=0.5;entryDx=0;entryDy=0;entryPerimeter=0;" parent="1" source="30" target="14" edge="1">
                    <mxGeometry relative="1" as="geometry">
                        <mxPoint x="784" y="722" as="targetPoint"/>
                        <Array as="points">
                            <mxPoint x="784" y="739"/>
                            <mxPoint x="784" y="356"/>
                        </Array>
                    </mxGeometry>
                </mxCell>
                <mxCell id="30" value="" style="verticalLabelPosition=bottom;shadow=0;dashed=0;align=center;html=1;verticalAlign=top;strokeWidth=1;shape=ellipse;" parent="1" vertex="1">
                    <mxGeometry x="64" y="724" width="30" height="30" as="geometry"/>
                </mxCell>
                <mxCell id="32" value="b" style="text;html=1;strokeColor=none;fillColor=none;align=center;verticalAlign=middle;whiteSpace=wrap;rounded=0;fontSize=32;" parent="1" vertex="1">
                    <mxGeometry x="8.5" y="71" width="51" height="60" as="geometry"/>
                </mxCell>
                <mxCell id="36" value="o" style="text;html=1;strokeColor=none;fillColor=none;align=center;verticalAlign=middle;whiteSpace=wrap;rounded=0;fontSize=32;" parent="1" vertex="1">
                    <mxGeometry x="388" y="347" width="100" height="60" as="geometry"/>
                </mxCell>
                <mxCell id="37" value="r&lt;sub&gt;s&lt;/sub&gt;" style="text;html=1;strokeColor=none;fillColor=none;align=center;verticalAlign=middle;whiteSpace=wrap;rounded=0;fontSize=32;" parent="1" vertex="1">
                    <mxGeometry x="214" y="82" width="80" height="60" as="geometry"/>
                </mxCell>
                <mxCell id="38" value="r&lt;sub&gt;s&lt;/sub&gt;" style="text;html=1;strokeColor=none;fillColor=none;align=center;verticalAlign=middle;whiteSpace=wrap;rounded=0;fontSize=32;" parent="1" vertex="1">
                    <mxGeometry x="214" y="571" width="80" height="60" as="geometry"/>
                </mxCell>
                <mxCell id="39" value="r&lt;sub&gt;s&lt;/sub&gt;" style="text;html=1;strokeColor=none;fillColor=none;align=center;verticalAlign=middle;whiteSpace=wrap;rounded=0;fontSize=32;" parent="1" vertex="1">
                    <mxGeometry x="669" y="276" width="80" height="60" as="geometry"/>
                </mxCell>
                <mxCell id="40" value="L&lt;sub&gt;as&lt;/sub&gt;" style="text;html=1;strokeColor=none;fillColor=none;align=center;verticalAlign=middle;whiteSpace=wrap;rounded=0;fontSize=32;" parent="1" vertex="1">
                    <mxGeometry x="563" y="276" width="80" height="60" as="geometry"/>
                </mxCell>
                <mxCell id="41" value="L&lt;sub&gt;cs&lt;/sub&gt;" style="text;html=1;strokeColor=none;fillColor=none;align=center;verticalAlign=middle;whiteSpace=wrap;rounded=0;fontSize=32;" parent="1" vertex="1">
                    <mxGeometry x="304" y="486" width="80" height="60" as="geometry"/>
                </mxCell>
                <mxCell id="42" value="L&lt;sub&gt;bs&lt;/sub&gt;" style="text;html=1;strokeColor=none;fillColor=none;align=center;verticalAlign=middle;whiteSpace=wrap;rounded=0;fontSize=32;" parent="1" vertex="1">
                    <mxGeometry x="304" y="146" width="80" height="60" as="geometry"/>
                </mxCell>
                <mxCell id="43" value="" style="endArrow=classic;html=1;fontSize=32;" parent="1" edge="1">
                    <mxGeometry width="50" height="50" relative="1" as="geometry">
                        <mxPoint x="114" y="71" as="sourcePoint"/>
                        <mxPoint x="184" y="71" as="targetPoint"/>
                    </mxGeometry>
                </mxCell>
                <mxCell id="45" value="i&lt;sub&gt;bs&lt;/sub&gt;" style="text;html=1;strokeColor=none;fillColor=none;align=center;verticalAlign=middle;whiteSpace=wrap;rounded=0;fontSize=32;" parent="1" vertex="1">
                    <mxGeometry x="114" y="6" width="80" height="60" as="geometry"/>
                </mxCell>
                <mxCell id="46" value="+" style="text;html=1;strokeColor=none;fillColor=none;align=center;verticalAlign=middle;whiteSpace=wrap;rounded=0;fontSize=32;" parent="1" vertex="1">
                    <mxGeometry x="131" y="101" width="60" height="60" as="geometry"/>
                </mxCell>
                <mxCell id="47" value="_" style="text;html=1;strokeColor=none;fillColor=none;align=center;verticalAlign=middle;whiteSpace=wrap;rounded=0;fontSize=32;" parent="1" vertex="1">
                    <mxGeometry x="307" y="292" width="60" height="60" as="geometry"/>
                </mxCell>
                <mxCell id="49" value="v&lt;sub&gt;bs&lt;/sub&gt;" style="text;html=1;strokeColor=none;fillColor=none;align=center;verticalAlign=middle;whiteSpace=wrap;rounded=0;fontSize=32;" parent="1" vertex="1">
                    <mxGeometry x="184" y="226" width="80" height="60" as="geometry"/>
                </mxCell>
                <mxCell id="50" value="_" style="text;html=1;strokeColor=none;fillColor=none;align=center;verticalAlign=middle;whiteSpace=wrap;rounded=0;fontSize=32;" parent="1" vertex="1">
                    <mxGeometry x="307" y="319" width="60" height="60" as="geometry"/>
                </mxCell>
                <mxCell id="51" value="+" style="text;html=1;strokeColor=none;fillColor=none;align=center;verticalAlign=middle;whiteSpace=wrap;rounded=0;fontSize=32;" parent="1" vertex="1">
                    <mxGeometry x="124" y="516" width="57" height="60" as="geometry"/>
                </mxCell>
                <mxCell id="52" value="v&lt;sub&gt;cs&lt;/sub&gt;" style="text;html=1;strokeColor=none;fillColor=none;align=center;verticalAlign=middle;whiteSpace=wrap;rounded=0;fontSize=32;" parent="1" vertex="1">
                    <mxGeometry x="191" y="407" width="80" height="60" as="geometry"/>
                </mxCell>
                <mxCell id="53" value="_" style="text;html=1;strokeColor=none;fillColor=none;align=center;verticalAlign=middle;whiteSpace=wrap;rounded=0;fontSize=32;" parent="1" vertex="1">
                    <mxGeometry x="444" y="366" width="60" height="60" as="geometry"/>
                </mxCell>
                <mxCell id="54" value="+" style="text;html=1;strokeColor=none;fillColor=none;align=center;verticalAlign=middle;whiteSpace=wrap;rounded=0;fontSize=32;" parent="1" vertex="1">
                    <mxGeometry x="724" y="376" width="57" height="60" as="geometry"/>
                </mxCell>
                <mxCell id="55" value="v&lt;sub&gt;as&lt;/sub&gt;" style="text;html=1;strokeColor=none;fillColor=none;align=center;verticalAlign=middle;whiteSpace=wrap;rounded=0;fontSize=32;" parent="1" vertex="1">
                    <mxGeometry x="577" y="379" width="80" height="60" as="geometry"/>
                </mxCell>
                <mxCell id="56" value="" style="endArrow=classic;html=1;fontSize=32;" parent="1" edge="1">
                    <mxGeometry width="50" height="50" relative="1" as="geometry">
                        <mxPoint x="113.99999999999977" y="619" as="sourcePoint"/>
                        <mxPoint x="184" y="619" as="targetPoint"/>
                    </mxGeometry>
                </mxCell>
                <mxCell id="57" value="i&lt;sub&gt;cs&lt;/sub&gt;" style="text;html=1;strokeColor=none;fillColor=none;align=center;verticalAlign=middle;whiteSpace=wrap;rounded=0;fontSize=32;" parent="1" vertex="1">
                    <mxGeometry x="110" y="624" width="80" height="50" as="geometry"/>
                </mxCell>
                <mxCell id="58" value="" style="endArrow=classic;html=1;fontSize=32;" parent="1" edge="1">
                    <mxGeometry width="50" height="50" relative="1" as="geometry">
                        <mxPoint x="759" y="581" as="sourcePoint"/>
                        <mxPoint x="759" y="511" as="targetPoint"/>
                    </mxGeometry>
                </mxCell>
                <mxCell id="59" value="i&lt;span style=&quot;font-size: 26.6667px&quot;&gt;&lt;sub&gt;as&lt;/sub&gt;&lt;/span&gt;" style="text;html=1;strokeColor=none;fillColor=none;align=center;verticalAlign=middle;whiteSpace=wrap;rounded=0;fontSize=32;" parent="1" vertex="1">
                    <mxGeometry x="701" y="521" width="58" height="50" as="geometry"/>
                </mxCell>
                <mxCell id="60" value="c" style="text;html=1;strokeColor=none;fillColor=none;align=center;verticalAlign=middle;whiteSpace=wrap;rounded=0;fontSize=32;" parent="1" vertex="1">
                    <mxGeometry x="8.5" y="571" width="51" height="60" as="geometry"/>
                </mxCell>
                <mxCell id="61" value="N" style="text;html=1;strokeColor=none;fillColor=none;align=center;verticalAlign=middle;whiteSpace=wrap;rounded=0;fontSize=32;" parent="1" vertex="1">
                    <mxGeometry x="8.5" y="649" width="51" height="60" as="geometry"/>
                </mxCell>
                <mxCell id="62" value="a" style="text;html=1;strokeColor=none;fillColor=none;align=center;verticalAlign=middle;whiteSpace=wrap;rounded=0;fontSize=32;" parent="1" vertex="1">
                    <mxGeometry x="8.5" y="709" width="51" height="60" as="geometry"/>
                </mxCell>
                <mxCell id="63" value="" style="endArrow=classic;html=1;fontSize=32;" parent="1" edge="1">
                    <mxGeometry width="50" height="50" relative="1" as="geometry">
                        <mxPoint x="443.99999999999994" y="616" as="sourcePoint"/>
                        <mxPoint x="443.99999999999994" y="672" as="targetPoint"/>
                    </mxGeometry>
                </mxCell>
                <mxCell id="64" value="i&lt;sub&gt;N&amp;nbsp;&lt;/sub&gt;= i&lt;span style=&quot;font-size: 26.6667px&quot;&gt;&lt;sub&gt;as&lt;/sub&gt;+&lt;/span&gt;i&lt;sub&gt;bs&lt;/sub&gt;+i&lt;sub&gt;cs&lt;/sub&gt;&lt;span style=&quot;font-size: 26.6667px&quot;&gt;&lt;br&gt;&lt;/span&gt;" style="text;html=1;strokeColor=none;fillColor=none;align=center;verticalAlign=middle;whiteSpace=wrap;rounded=0;fontSize=32;" parent="1" vertex="1">
                    <mxGeometry x="444" y="620" width="230" height="50" as="geometry"/>
                </mxCell>
                <mxCell id="65" value="" style="endArrow=classic;html=1;strokeWidth=7;" edge="1" parent="1">
                    <mxGeometry width="50" height="50" relative="1" as="geometry">
                        <mxPoint x="1090" y="544" as="sourcePoint"/>
                        <mxPoint x="1350" y="544" as="targetPoint"/>
                    </mxGeometry>
                </mxCell>
                <mxCell id="66" value="" style="endArrow=classic;html=1;strokeWidth=7;" edge="1" parent="1">
                    <mxGeometry width="50" height="50" relative="1" as="geometry">
                        <mxPoint x="1090" y="546.29" as="sourcePoint"/>
                        <mxPoint x="920" y="328" as="targetPoint"/>
                    </mxGeometry>
                </mxCell>
                <mxCell id="67" value="" style="endArrow=classic;html=1;strokeWidth=7;" edge="1" parent="1">
                    <mxGeometry width="50" height="50" relative="1" as="geometry">
                        <mxPoint x="1090" y="544" as="sourcePoint"/>
                        <mxPoint x="920" y="758" as="targetPoint"/>
                    </mxGeometry>
                </mxCell>
                <mxCell id="68" value="a" style="text;html=1;strokeColor=none;fillColor=none;align=center;verticalAlign=middle;whiteSpace=wrap;rounded=0;fontSize=32;" vertex="1" parent="1">
                    <mxGeometry x="1340" y="533" width="80" height="30" as="geometry"/>
                </mxCell>
                <mxCell id="69" value="b" style="text;html=1;strokeColor=none;fillColor=none;align=center;verticalAlign=middle;whiteSpace=wrap;rounded=0;fontSize=32;" vertex="1" parent="1">
                    <mxGeometry x="860" y="268" width="80" height="60" as="geometry"/>
                </mxCell>
                <mxCell id="70" value="c" style="text;html=1;strokeColor=none;fillColor=none;align=center;verticalAlign=middle;whiteSpace=wrap;rounded=0;fontSize=32;" vertex="1" parent="1">
                    <mxGeometry x="860" y="754" width="80" height="60" as="geometry"/>
                </mxCell>
                <mxCell id="73" value="S" style="rounded=0;whiteSpace=wrap;html=1;fontSize=32;fillColor=#0050ef;strokeColor=#001DBC;fontColor=#ffffff;rotation=-105;" vertex="1" parent="1">
                    <mxGeometry x="1010" y="459" width="120" height="60" as="geometry"/>
                </mxCell>
                <mxCell id="74" value="N" style="rounded=0;whiteSpace=wrap;html=1;fontSize=32;fillColor=#a20025;strokeColor=#6F0000;fontColor=#ffffff;rotation=-105;" vertex="1" parent="1">
                    <mxGeometry x="1041" y="577" width="120" height="60" as="geometry"/>
                </mxCell>
                <mxCell id="75" value="" style="endArrow=classic;html=1;strokeWidth=7;exitX=1;exitY=0.5;exitDx=0;exitDy=0;" edge="1" parent="1" source="74">
                    <mxGeometry width="50" height="50" relative="1" as="geometry">
                        <mxPoint x="1191" y="574" as="sourcePoint"/>
                        <mxPoint x="1140" y="742" as="targetPoint"/>
                    </mxGeometry>
                </mxCell>
                <mxCell id="76" value="" style="endArrow=classic;html=1;strokeWidth=7;exitX=1;exitY=0.5;exitDx=0;exitDy=0;" edge="1" parent="1" source="74">
                    <mxGeometry width="50" height="50" relative="1" as="geometry">
                        <mxPoint x="1090.0006554351407" y="547.9983181144953" as="sourcePoint"/>
                        <mxPoint x="1320" y="492" as="targetPoint"/>
                    </mxGeometry>
                </mxCell>
                <mxCell id="77" value="d" style="text;html=1;strokeColor=none;fillColor=none;align=center;verticalAlign=middle;whiteSpace=wrap;rounded=0;fontSize=32;" vertex="1" parent="1">
                    <mxGeometry x="1110" y="746" width="60" height="48" as="geometry"/>
                </mxCell>
                <mxCell id="78" value="q" style="text;html=1;strokeColor=none;fillColor=none;align=center;verticalAlign=middle;whiteSpace=wrap;rounded=0;fontSize=32;" vertex="1" parent="1">
                    <mxGeometry x="1300" y="424" width="50" height="54" as="geometry"/>
                </mxCell>
                <mxCell id="81" value="" style="endArrow=none;html=1;fontSize=32;" edge="1" parent="1">
                    <mxGeometry width="50" height="50" relative="1" as="geometry">
                        <mxPoint x="1280" y="542" as="sourcePoint"/>
                        <mxPoint x="1270" y="508" as="targetPoint"/>
                        <Array as="points">
                            <mxPoint x="1280" y="522"/>
                        </Array>
                    </mxGeometry>
                </mxCell>
                <mxCell id="84" value="&lt;div class=&quot;page&quot; title=&quot;Page 2&quot;&gt;&lt;div class=&quot;layoutArea&quot;&gt;&lt;div class=&quot;column&quot; style=&quot;font-size: 42px&quot;&gt;&lt;p&gt;&lt;span style=&quot;font-size: 30px ; font-family: &amp;#34;cambria math&amp;#34;&quot;&gt;𝜃&lt;/span&gt;&lt;span style=&quot;font-size: 30px ; font-family: &amp;#34;cambria math&amp;#34;&quot;&gt;(𝑡) = &lt;/span&gt;&lt;span style=&quot;font-family: &amp;#34;cambria math&amp;#34; ; vertical-align: -1pt&quot;&gt;&lt;font style=&quot;font-size: 42px&quot;&gt;∫&lt;/font&gt;&lt;/span&gt;&lt;span style=&quot;font-family: &amp;#34;cambria math&amp;#34; ; vertical-align: -1pt&quot;&gt;&lt;font style=&quot;font-size: 42px&quot;&gt; &lt;/font&gt;&lt;/span&gt;&lt;span style=&quot;font-size: 30px ; font-family: &amp;#34;cambria math&amp;#34;&quot;&gt;𝜔&lt;/span&gt;&lt;span style=&quot;font-size: 30px ; font-family: &amp;#34;cambria math&amp;#34;&quot;&gt;(𝜉). 𝑑𝜉 + 𝜃&lt;/span&gt;&lt;span style=&quot;font-size: 30px ; font-family: &amp;#34;cambria math&amp;#34;&quot;&gt;(0)&lt;/span&gt;&lt;/p&gt;&lt;/div&gt;&lt;/div&gt;&#9;&#9;&lt;/div&gt;" style="text;whiteSpace=wrap;html=1;fontSize=34;" vertex="1" parent="1">
                    <mxGeometry x="1340" y="431" width="300" height="121" as="geometry"/>
                </mxCell>
            </root>
        </mxGraphModel>
    </diagram>
</mxfile>